<?xml version="1.0" standalone="no"?>
<!DOCTYPE svg PUBLIC "-//W3C//DTD SVG 20010904//EN"
 "http://www.w3.org/TR/2001/REC-SVG-20010904/DTD/svg10.dtd">
<svg version="1.0" xmlns="http://www.w3.org/2000/svg"
 width="1000.000000pt" height="1000.000000pt" viewBox="0 0 1000.000000 1000.000000"
 preserveAspectRatio="xMidYMid meet">
<metadata>
Created by potrace 1.14, written by Peter Selinger 2001-2017
</metadata>
<g transform="translate(0.000000,1000.000000) scale(0.100000,-0.100000)"
fill="#000000" stroke="none">
<path d="M2840 8488 c-100 -8 -152 -15 -223 -29 -29 -5 -67 -12 -86 -15 -58
-10 -254 -70 -352 -109 -564 -223 -1014 -669 -1234 -1223 -32 -83 -81 -234
-91 -285 -2 -10 -5 -26 -8 -35 -6 -20 -12 -53 -26 -137 -42 -268 -25 -608 44
-880 27 -108 100 -293 166 -426 258 -511 727 -911 1286 -1095 94 -30 256 -71
318 -79 27 -3 52 -8 56 -10 29 -18 462 -27 600 -12 387 42 764 205 1067 462
88 74 251 242 313 320 30 39 57 72 60 75 22 19 171 241 231 343 18 31 36 57
39 57 3 -1 28 -40 55 -87 46 -79 150 -234 207 -308 493 -636 1106 -921 1868
-870 452 30 914 211 1268 496 222 180 441 450 566 698 68 134 148 345 172 455
3 12 6 26 8 31 3 9 13 62 22 110 9 48 24 155 29 215 13 147 1 453 -21 522 -3
9 -7 32 -9 50 -6 45 -28 140 -50 213 -101 339 -283 644 -534 896 -210 210
-371 324 -636 450 -148 70 -350 140 -480 165 -11 2 -42 8 -70 14 -27 5 -68 12
-90 14 -22 3 -59 8 -83 11 -118 17 -433 11 -552 -10 -19 -3 -51 -8 -70 -11
-81 -13 -243 -60 -350 -101 -442 -170 -837 -518 -1176 -1037 -38 -58 -72 -106
-75 -106 -3 0 -28 34 -54 76 -64 101 -203 288 -297 399 -280 331 -616 570
-983 698 -108 38 -299 78 -440 93 -81 9 -293 10 -385 2z m334 -1003 c144 -12
312 -61 361 -105 17 -15 59 -49 95 -76 126 -95 269 -248 420 -449 25 -33 47
-62 50 -65 14 -12 143 -197 231 -330 91 -136 96 -147 84 -170 -16 -30 -214
-326 -259 -386 -17 -23 -40 -54 -51 -70 -35 -49 -209 -268 -240 -303 -120
-136 -256 -251 -340 -288 -142 -62 -326 -97 -510 -97 -84 1 -222 11 -233 18
-4 2 -23 7 -42 10 -54 9 -159 41 -225 69 -170 72 -300 168 -461 341 -28 29
-109 156 -140 218 -37 74 -93 233 -100 282 -2 17 -8 56 -13 86 -10 56 -8 285
3 330 3 14 11 49 17 79 12 59 36 131 68 204 11 26 20 49 21 52 0 3 19 35 42
73 192 308 490 509 840 567 136 22 220 24 382 10z m3961 1 c478 -40 917 -411
1036 -875 41 -160 47 -360 14 -526 -24 -123 -94 -288 -172 -408 -60 -92 -227
-259 -322 -322 -165 -109 -362 -181 -547 -201 -131 -15 -374 -5 -431 17 -15 6
-30 10 -33 9 -22 -5 -192 52 -259 86 -68 36 -259 223 -375 369 -48 61 -93 117
-99 125 -44 54 -217 300 -217 308 0 6 -3 12 -8 14 -4 2 -27 35 -52 73 -24 39
-47 72 -51 75 -3 3 -16 24 -29 47 -17 31 -20 44 -11 55 6 7 57 83 114 168 170
256 371 517 495 644 42 43 120 112 172 154 52 42 103 84 113 93 32 30 239 85
357 96 30 3 56 6 57 6 3 4 179 -2 248 -7z"/>
<path d="M3358 3405 c-2 -1 -23 -5 -48 -8 -58 -8 -172 -47 -232 -82 -136 -77
-261 -252 -294 -412 -16 -73 -9 -283 10 -358 41 -156 143 -299 269 -374 68
-40 199 -87 281 -99 58 -9 218 -8 265 2 50 11 138 38 189 58 59 23 59 24 37
125 -26 112 -18 105 -83 78 -187 -76 -406 -80 -542 -10 -142 73 -222 210 -227
390 -6 238 93 394 292 460 128 43 252 38 416 -15 133 -44 120 -49 144 62 l22
98 -80 31 c-108 41 -213 60 -324 58 -51 -1 -94 -3 -95 -4z"/>
<path d="M5221 2750 c0 -506 3 -661 12 -667 7 -4 52 -8 100 -8 70 0 90 3 96
15 3 8 6 201 6 428 -1 226 0 412 1 412 1 0 121 -120 266 -266 546 -551 589
-594 609 -594 10 0 19 6 20 13 0 6 1 303 2 660 l2 647 -106 0 -107 0 1 -420
c0 -231 -2 -423 -5 -426 -3 -3 -34 24 -69 59 -66 66 -483 496 -674 695 -76 78
-116 112 -131 112 l-23 0 0 -660z"/>
<path d="M27 3392 l-27 -3 2 -652 3 -652 394 0 394 0 2 82 c1 46 -2 88 -6 94
-5 8 -89 11 -285 11 -202 0 -281 3 -286 11 -4 7 -8 88 -8 180 0 140 2 169 15
173 8 4 122 7 253 8 l237 1 1 90 0 90 -250 5 -251 5 0 185 0 185 287 0 c158 1
290 4 295 8 12 13 10 169 -3 174 -13 5 -725 10 -767 5z"/>
<path d="M1105 3390 c-2 -3 -3 -298 -3 -657 l-1 -651 105 0 c100 -1 104 0 105
21 0 12 1 258 0 547 0 289 2 532 5 541 4 14 23 16 142 13 148 -3 197 -14 257
-59 94 -72 108 -251 27 -352 -34 -43 -100 -78 -171 -89 -22 -4 -41 -11 -41
-16 0 -5 10 -43 23 -83 27 -91 38 -97 124 -74 137 38 229 113 291 237 36 74
37 79 37 186 0 92 -4 120 -22 166 -64 155 -194 247 -375 266 -74 7 -499 11
-503 4z"/>
<path d="M2284 3390 c-13 -5 -15 -85 -16 -653 0 -356 2 -651 6 -654 3 -3 50
-6 103 -6 l98 -1 0 657 c0 433 -3 657 -10 658 -58 3 -169 3 -181 -1z"/>
<path d="M4164 3392 l-42 -3 1 -654 0 -653 393 0 c292 0 393 2 396 11 7 19 2
166 -4 173 -4 3 -132 6 -285 6 -202 0 -280 3 -285 11 -4 7 -8 90 -8 185 0 157
2 172 18 173 9 0 122 1 250 0 127 0 232 3 233 7 3 24 4 159 1 170 -3 9 -62 12
-251 12 l-248 0 1 188 1 187 287 1 c158 0 291 4 295 8 5 4 8 46 8 92 1 69 -2
84 -15 85 -59 2 -713 3 -746 1z"/>
<path d="M6712 3392 l-143 -3 3 -92 3 -92 215 0 215 -1 2 -549 c0 -303 2 -556
2 -562 1 -10 29 -13 104 -13 l103 0 0 560 c-1 365 2 561 9 563 6 2 103 3 217
2 l207 0 3 89 c2 54 -1 90 -7 92 -13 5 -743 10 -933 6z"/>
<path d="M7893 3383 c-3 -7 -6 -303 -6 -658 l-2 -645 105 0 c216 -1 626 -1
656 0 l31 0 1 94 c2 82 0 94 -15 98 -10 2 -141 3 -290 2 l-273 -1 0 184 c0
167 2 183 18 184 9 0 121 1 247 2 l230 2 3 93 3 92 -251 0 -250 0 2 188 3 187
290 0 290 0 3 93 3 92 -73 0 c-40 0 -219 1 -397 3 -246 1 -325 -1 -328 -10z"/>
<path d="M8994 3391 c-2 -2 -4 -298 -4 -657 l0 -653 38 -3 c20 -2 67 -2 103 0
l66 4 1 541 c0 298 1 552 1 565 1 23 2 23 106 17 174 -9 230 -24 291 -77 51
-45 75 -104 75 -183 0 -136 -75 -232 -207 -265 l-62 -15 17 -32 c46 -91 328
-527 349 -541 21 -14 97 -18 220 -13 12 1 -3 32 -31 66 -5 6 -69 107 -144 225
l-135 214 23 16 c111 73 182 215 182 365 -1 231 -144 381 -403 421 -48 8 -479
12 -486 5z"/>
</g>
</svg>
